<?xml version="1.0" encoding="utf-8"?>
<!-- Generator: Adobe Illustrator 24.3.0, SVG Export Plug-In . SVG Version: 6.00 Build 0)  -->
<svg version="1.1" id="Layer_1" xmlns="http://www.w3.org/2000/svg" xmlns:xlink="http://www.w3.org/1999/xlink" x="0px" y="0px"
	 viewBox="0 0 448 512" style="enable-background:new 0 0 448 512;" xml:space="preserve">
<style type="text/css">
	.st0{fill:#FFFFFF;}
</style>
<g>
	<path d="M65.6,491.4c-10.7,0-19.4-8.7-19.4-19.4v-28.8c0-10.7,8.7-19.4,19.4-19.4h316.8c10.7,0,19.4,8.7,19.4,19.4V472
		c0,10.7-8.7,19.4-19.4,19.4H65.6z M85.9,405L19,208.5c-1-3.3-1.5-6.6-1.5-10c0-9,3.5-17.5,9.9-23.9c6.4-6.4,14.9-9.9,23.9-9.9h139
		v-33.2h-31c-6.7,0-12.2-5.5-12.2-12.2V76c0-6.7,5.5-12.2,12.2-12.2h31v-31c0-6.7,5.5-12.2,12.2-12.2h43.2c6.7,0,12.2,5.5,12.2,12.2
		v31h31c6.7,0,12.2,5.5,12.2,12.2v43.2c0,6.7-5.5,12.2-12.2,12.2h-31v33.2h139c3.4,0,6.8,0.5,10.1,1.5c8.6,2.7,15.7,8.6,19.9,16.6
		s5,17.1,2.3,25.8l-67,196.5H85.9z"/>
	<path class="st0" d="M245.6,25.6c4,0,7.2,3.2,7.2,7.2v36h36c4,0,7.2,3.2,7.2,7.2v43.2c0,4-3.2,7.2-7.2,7.2h-36v43.2h144
		c2.9,0,5.8,0.4,8.6,1.3c15.2,4.7,23.6,20.9,18.9,36.1l-65.8,193h-269L23.7,207c-0.9-2.8-1.3-5.7-1.3-8.6
		c0-15.9,12.9-28.8,28.8-28.8h144v-43.2h-36c-4,0-7.2-3.2-7.2-7.2V76c0-4,3.2-7.2,7.2-7.2h36v-36c0-4,3.2-7.2,7.2-7.2H245.6
		 M382.4,428.8c8,0,14.4,6.4,14.4,14.4V472c0,8-6.4,14.4-14.4,14.4H65.6c-8,0-14.4-6.4-14.4-14.4v-28.8c0-8,6.4-14.4,14.4-14.4
		H382.4 M245.6,15.6h-43.2c-9.5,0-17.2,7.7-17.2,17.2v26h-26c-9.5,0-17.2,7.7-17.2,17.2v43.2c0,9.5,7.7,17.2,17.2,17.2h26v23.2h-134
		c-10.4,0-20.1,4.1-27.4,11.4c-7.3,7.3-11.4,17.1-11.3,27.4c0,3.9,0.6,7.8,1.8,11.5l0,0.1l0,0.1l65.8,193l2.3,6.8h7.2h269h7.2
		l2.3-6.8l65.8-193l0-0.1l0-0.1c3.1-9.9,2.1-20.4-2.7-29.6c-4.8-9.2-12.9-15.9-22.8-19c-3.7-1.2-7.6-1.8-11.5-1.8h-134v-23.2h26
		c9.5,0,17.2-7.7,17.2-17.2V76c0-9.5-7.7-17.2-17.2-17.2h-26v-26C262.8,23.3,255.1,15.6,245.6,15.6L245.6,15.6z M382.4,418.8H65.6
		c-13.5,0-24.4,10.9-24.4,24.4V472c0,13.5,10.9,24.4,24.4,24.4h316.8c13.5,0,24.4-10.9,24.4-24.4v-28.8
		C406.8,429.7,395.9,418.8,382.4,418.8L382.4,418.8z"/>
</g>
</svg>
