<?xml version="1.0" encoding="utf-8"?>
<!-- Generator: Adobe Illustrator 24.3.0, SVG Export Plug-In . SVG Version: 6.00 Build 0)  -->
<svg version="1.1" id="Layer_1" xmlns="http://www.w3.org/2000/svg" xmlns:xlink="http://www.w3.org/1999/xlink" x="0px" y="0px"
	 viewBox="0 0 512 512" style="enable-background:new 0 0 512 512;" xml:space="preserve">
<style type="text/css">
	.st0{fill:#FFFFFF;}
</style>
<g>
	<path d="M97.6,496.4c-13.5,0-24.4-10.9-24.4-24.4v-28.8c0-13.5,10.9-24.4,24.4-24.4h316.8c13.5,0,24.4,10.9,24.4,24.4V472
		c0,13.5-10.9,24.4-24.4,24.4H97.6z M113.2,410l-95-195.8c-5.4-11-1.9-24.4,8.3-31.2l0.3-0.2l25.8-14.4c3.9-2.5,8.3-3.8,12.8-3.8
		c7.8,0,15.4,3.9,20.3,10.4c6.2,8.3,16,13.3,26.4,13.3c0.8,0,1.5,0,2.3-0.1c17.3-1.2,30.9-16.8,30.9-35.5c0-12.2,9.9-22.1,22.1-22.1
		h34.9c10.3,0,19.3,7.1,21.4,16.9c2.7,12.9,12.8,22.9,25.6,25.7c2.3,0.5,4.6,0.7,6.9,0.7c15.6,0,29.2-11.1,32.4-26.4
		c2.1-9.8,11-16.9,21.4-16.9h34.9c12.2,0,22.1,9.9,22.1,22.1c0,17.1,11.5,32.1,26.8,34.9c2.2,0.4,4.3,0.6,6.4,0.6
		c10.3,0,20.1-4.9,26.3-13.2c5-6.6,12.6-10.6,20.5-10.6c4.5,0,8.9,1.3,12.8,3.8l25.7,14.3l0.3,0.2c10.2,6.8,13.8,20.2,8.3,31.2
		l-95,195.8H113.2V410z M256,136.4c-33.3,0-60.4-27.1-60.4-60.4s27.1-60.4,60.4-60.4s60.4,27.1,60.4,60.4S289.3,136.4,256,136.4z"/>
	<path class="st0" d="M256,25.6c27.8,0,50.4,22.6,50.4,50.4s-22.6,50.4-50.4,50.4s-50.4-22.6-50.4-50.4S228.2,25.6,256,25.6
		 M344.7,140.8c6.7,0,12.1,5.4,12.1,12.1c0,21.2,14.1,40.9,35,44.8c2.7,0.5,5.5,0.8,8.2,0.8c13.3,0,26.1-6.3,34.3-17.2
		c3.1-4.1,7.8-6.6,12.5-6.6c2.6,0,5.2,0.7,7.6,2.3l25.7,14.3c6,4,8.1,11.9,4.9,18.4L392.6,400H119.4L27.1,209.8
		c-3.2-6.5-1.1-14.4,4.9-18.4L57.7,177c2.4-1.6,5-2.3,7.6-2.3c4.6,0,9.2,2.3,12.3,6.4c8.1,11,20.9,17.3,34.4,17.3c1,0,2,0,3-0.1
		c23.1-1.6,40.2-22.3,40.2-45.4c0-6.7,5.4-12.1,12.1-12.1h34.9c5.4,0,10.4,3.6,11.6,8.9c3.5,16.8,16.6,29.8,33.4,33.4
		c3,0.6,6,0.9,8.9,0.9c20,0,37.9-14,42.2-34.3c1.1-5.3,6.2-8.9,11.6-8.9L344.7,140.8 M414.4,428.8c8,0,14.4,6.4,14.4,14.4V472
		c0,8-6.4,14.4-14.4,14.4H97.6c-8,0-14.4-6.4-14.4-14.4v-28.8c0-8,6.4-14.4,14.4-14.4L414.4,428.8 M256,5.6
		c-38.8,0-70.4,31.6-70.4,70.4c0,17,6.1,32.6,16.1,44.8h-34.5c-17.7,0-32.1,14.4-32.1,32.1c0,13.2-9.7,24.7-21.6,25.5l0,0l0,0
		c-0.5,0-1.1,0.1-1.6,0.1c-7.2,0-14-3.4-18.3-9.2l0,0l0,0c-6.7-9.1-17.3-14.5-28.3-14.5c-6.4,0-12.5,1.8-17.9,5.2l-25.2,14.1
		l-0.7,0.4l-0.6,0.4c-14.4,9.6-19.4,28.4-11.8,43.9l92.3,190.1v0.1h-3.9c-19,0-34.4,15.4-34.4,34.4V472c0,19,15.4,34.4,34.4,34.4
		h316.8c19,0,34.4-15.4,34.4-34.4v-28.8c0-19-15.4-34.4-34.4-34.4h-3.9v-0.1l92.3-190.1c7.7-15.5,2.6-34.3-11.8-43.9l-0.7-0.4
		l-0.7-0.4l-25.1-14c-5.4-3.4-11.6-5.2-17.9-5.2c-11,0-21.6,5.4-28.4,14.5l0,0l0,0c-4.3,5.7-11.1,9.2-18.3,9.2
		c-1.5,0-2.9-0.1-4.4-0.4h-0.1h-0.1c-10.6-2-18.6-12.8-18.6-25.1c0-17.7-14.4-32.1-32.1-32.1H310c10.1-12.2,16.1-27.8,16.1-44.8
		C326.4,37.2,294.8,5.6,256,5.6L256,5.6z M256,164c-1.6,0-3.2-0.2-4.8-0.5c-9-1.9-16-8.9-17.9-17.9c-0.2-1.1-0.5-2.2-0.9-3.3
		c7.4,2.6,15.3,4.1,23.6,4.1s16.2-1.4,23.6-4.1c-0.3,1.1-0.6,2.1-0.9,3.2C276.5,156.3,266.9,164,256,164L256,164z"/>
</g>
</svg>
