<?xml version="1.0" encoding="utf-8"?>
<!-- Generator: Adobe Illustrator 24.3.0, SVG Export Plug-In . SVG Version: 6.00 Build 0)  -->
<svg version="1.1" id="Layer_1" xmlns="http://www.w3.org/2000/svg" xmlns:xlink="http://www.w3.org/1999/xlink" x="0px" y="0px"
	 viewBox="0 0 384 512" style="enable-background:new 0 0 384 512;" xml:space="preserve">
<style type="text/css">
	.st0{fill:#FFFFFF;}
</style>
<g>
	<path d="M33.6,493c-10.7,0-19.4-8.7-19.4-19.4v-28.8c0-10.7,8.7-19.4,19.4-19.4h316.8c10.7,0,19.4,8.7,19.4,19.4v28.8
		c0,10.7-8.7,19.4-19.4,19.4H33.6z M43,406.6v-18.1c0-29.3,16.3-55.7,42.5-68.9l51.5-25.8c13-6.5,21.1-19.6,21.1-34.2v-37.2
		l-12.7,6.3c-4.3,2.2-7.5,6.1-8.7,10.8l-0.1,0.2l-8.3,27.6c-3,9.9-10.2,17.8-19.8,21.7l-11.5,4.6c-4,1.6-8.2,2.4-12.6,2.4
		c0,0,0,0,0,0c-4.8,0-9.4-1-13.7-2.9L34.3,277c-12.2-5.4-20.1-17.6-20.1-30.9V122.6c0-7.1,2.7-13.8,7.8-18.8l5.6-5.6L16.3,75.9
		c-1.4-2.8-2.1-5.9-2.1-9.1C14.2,58.1,21.3,51,30,51h133.1c98,0,177.7,79.8,177.7,177.8v177.8H43z M66,147.4c-7.2,0-13,5.8-13,13
		c0,7.2,5.8,13,13,13c7.2,0,13-5.8,13-13C79,153.2,73.2,147.4,66,147.4z"/>
	<path class="st0" d="M163.1,56c95.4,0,172.7,77.4,172.7,172.8v172.8H48v-13.1c0-27.3,15.4-52.2,39.8-64.4l51.5-25.8
		c14.6-7.3,23.9-22.3,23.9-38.6v-45.3l-19.9,10c-5.6,2.8-9.8,8-11.3,14.1l-8.3,27.6c-2.5,8.4-8.7,15.2-16.9,18.5l-11.5,4.6
		c-3.4,1.4-7.1,2.1-10.7,2.1c-4,0-8-0.8-11.7-2.5l-36.6-16.3c-10.4-4.6-17.1-14.9-17.1-26.3V122.6c0-5.7,2.3-11.2,6.3-15.3l8.1-8.1
		L20.8,73.6c-1.1-2.1-1.6-4.5-1.6-6.8C19.2,60.8,24,56,30,56H163.1 M66,178.4c9.9,0,18-8.1,18-18s-8.1-18-18-18c-9.9,0-18,8.1-18,18
		S56.1,178.4,66,178.4 M350.4,430.4c8,0,14.4,6.4,14.4,14.4v28.8c0,8-6.4,14.4-14.4,14.4H33.6c-8,0-14.4-6.4-14.4-14.4v-28.8
		c0-8,6.4-14.4,14.4-14.4H350.4 M163.1,46H30C18.5,46,9.2,55.3,9.2,66.8c0,3.9,0.9,7.8,2.7,11.3l9.6,19.1l-3,3
		c-6,6-9.2,13.9-9.2,22.4v123.5c0,15.3,9,29.2,23,35.5l36.6,16.3c5,2.2,10.3,3.3,15.8,3.3c5,0,9.8-0.9,14.4-2.8l11.5-4.6
		c11-4.4,19.3-13.5,22.7-24.9l8.3-27.6l0.1-0.2l0.1-0.2c0.8-3.3,3-6,6.1-7.6l5.4-2.7v29.1c0,12.7-7,24-18.3,29.7l-51.5,25.8
		c-13.6,6.8-25.1,17.3-33.1,30.2c-8,13-12.2,27.9-12.2,43.1v13.1v10h10h287.9h10v-10V228.8c0-24.7-4.8-48.6-14.4-71.1
		c-9.2-21.8-22.4-41.3-39.2-58.1c-16.8-16.8-36.3-30-58.1-39.2C211.7,50.8,187.8,46,163.1,46L163.1,46z M66,168.4c-4.4,0-8-3.6-8-8
		s3.6-8,8-8c4.4,0,8,3.6,8,8S70.4,168.4,66,168.4L66,168.4z M350.4,420.4H33.6c-13.5,0-24.4,10.9-24.4,24.4v28.8
		c0,13.5,10.9,24.4,24.4,24.4h316.8c13.5,0,24.4-10.9,24.4-24.4v-28.8C374.8,431.3,363.9,420.4,350.4,420.4L350.4,420.4z"/>
</g>
</svg>
