<?xml version="1.0" encoding="utf-8"?>
<!-- Generator: Adobe Illustrator 24.3.0, SVG Export Plug-In . SVG Version: 6.00 Build 0)  -->
<svg version="1.1" id="Layer_1" xmlns="http://www.w3.org/2000/svg" xmlns:xlink="http://www.w3.org/1999/xlink" x="0px" y="0px"
	 viewBox="0 0 512 512" style="enable-background:new 0 0 512 512;" xml:space="preserve">
<style type="text/css">
	.st0{fill:#FFFFFF;}
</style>
<g>
	<path d="M97.6,491.4c-10.7,0-19.4-8.7-19.4-19.4v-28.8c0-10.7,8.7-19.4,19.4-19.4h316.8c10.7,0,19.4,8.7,19.4,19.4V472
		c0,10.7-8.7,19.4-19.4,19.4H97.6z M116.3,405L22.6,212c-4.3-8.7-1.5-19.4,6.6-24.8l0.2-0.1l25.7-14.4c3.1-2,6.6-3.1,10.2-3.1
		c6.2,0,12.3,3.2,16.3,8.4c7.1,9.6,18.4,15.3,30.4,15.3c0.9,0,1.8,0,2.7-0.1c19.9-1.4,35.6-19.1,35.6-40.5c0-9.4,7.7-17.1,17.1-17.1
		h34.9c8,0,14.9,5.4,16.5,12.9c3.1,14.8,14.7,26.4,29.5,29.5c2.6,0.5,5.3,0.8,7.9,0.8c17.9,0,33.6-12.8,37.3-30.3
		c1.6-7.5,8.5-12.9,16.5-12.9h34.9c9.4,0,17.1,7.7,17.1,17.1c0,19.5,13.3,36.6,30.9,39.9c2.4,0.5,4.9,0.7,7.3,0.7
		c11.9,0,23.2-5.7,30.3-15.2c4-5.4,10.2-8.6,16.5-8.6c3.6,0,7.1,1.1,10.2,3.1l25.7,14.3l0.2,0.1c8.1,5.4,11,16.1,6.6,24.8l-93.6,193
		H116.3z M256,131.4c-30.5,0-55.4-24.9-55.4-55.4s24.9-55.4,55.4-55.4s55.4,24.9,55.4,55.4S286.5,131.4,256,131.4z"/>
	<path class="st0" d="M256,25.6c27.8,0,50.4,22.6,50.4,50.4s-22.6,50.4-50.4,50.4s-50.4-22.6-50.4-50.4S228.2,25.6,256,25.6
		 M344.7,140.8c6.7,0,12.1,5.4,12.1,12.1c0,21.2,14.1,40.9,35,44.8c2.7,0.5,5.5,0.8,8.2,0.8c13.3,0,26.1-6.3,34.3-17.2
		c3.1-4.1,7.8-6.6,12.5-6.6c2.6,0,5.2,0.7,7.6,2.3l25.7,14.3c6,4,8.1,11.9,4.9,18.4L392.6,400H119.4L27.1,209.8
		c-3.2-6.5-1.1-14.4,4.9-18.4L57.7,177c2.4-1.6,5-2.3,7.6-2.3c4.6,0,9.2,2.3,12.3,6.4c8.1,11,20.9,17.3,34.4,17.3c1,0,2,0,3-0.1
		c23.1-1.6,40.2-22.3,40.2-45.4c0-6.7,5.4-12.1,12.1-12.1h34.9c5.4,0,10.4,3.6,11.6,8.9c3.5,16.8,16.6,29.8,33.4,33.4
		c3,0.6,6,0.9,8.9,0.9c20,0,37.9-14,42.2-34.3c1.1-5.3,6.2-8.9,11.6-8.9H344.7 M414.4,428.8c8,0,14.4,6.4,14.4,14.4V472
		c0,8-6.4,14.4-14.4,14.4H97.6c-8,0-14.4-6.4-14.4-14.4v-28.8c0-8,6.4-14.4,14.4-14.4H414.4 M256,15.6c-33.3,0-60.4,27.1-60.4,60.4
		s27.1,60.4,60.4,60.4s60.4-27.1,60.4-60.4S289.3,15.6,256,15.6L256,15.6z M344.7,130.8h-34.9c-10.3,0-19.3,7.1-21.4,16.8
		c-3.2,15.3-16.9,26.4-32.4,26.4c-2.3,0-4.6-0.2-6.9-0.7c-12.9-2.7-22.9-12.8-25.6-25.6c-2.1-9.8-11-16.9-21.4-16.9h-34.9
		c-12.2,0-22.1,9.9-22.1,22.1c0,18.7-13.6,34.3-30.9,35.5c-0.8,0.1-1.6,0.1-2.3,0.1c-10.3,0-20.2-5-26.3-13.3
		c-4.9-6.6-12.5-10.5-20.3-10.5c-4.5,0-9,1.3-12.8,3.8l-25.4,14.2l-0.3,0.2l-0.3,0.2c-10.2,6.8-13.8,20.2-8.3,31.2l92.3,190.2
		l2.7,5.6h6.3h273.2h6.3l2.7-5.6l92.3-190.2c5.4-11,1.9-24.4-8.3-31.2l-0.3-0.2l-0.3-0.2l-25.3-14.2c-3.8-2.5-8.3-3.8-12.8-3.8
		c-7.8,0-15.5,3.9-20.4,10.5c-6.2,8.3-16,13.2-26.3,13.2c-2.1,0-4.2-0.2-6.3-0.6l0,0l0,0c-15.3-2.8-26.8-17.9-26.8-34.9
		C366.8,140.7,356.9,130.8,344.7,130.8L344.7,130.8z M414.4,418.8H97.6c-13.5,0-24.4,10.9-24.4,24.4V472c0,13.5,10.9,24.4,24.4,24.4
		h316.8c13.5,0,24.4-10.9,24.4-24.4v-28.8C438.8,429.7,427.9,418.8,414.4,418.8L414.4,418.8z"/>
</g>
</svg>
