<?xml version="1.0" encoding="utf-8"?>
<!-- Generator: Adobe Illustrator 24.3.0, SVG Export Plug-In . SVG Version: 6.00 Build 0)  -->
<svg version="1.1" id="Layer_1" xmlns="http://www.w3.org/2000/svg" xmlns:xlink="http://www.w3.org/1999/xlink" x="0px" y="0px"
	 viewBox="0 0 320 512" style="enable-background:new 0 0 320 512;" xml:space="preserve">
<style type="text/css">
	.st0{fill:#FFFFFF;}
</style>
<g>
	<path d="M30.4,498C16.9,498,6,487.1,6,473.6v-28.8c0-13.5,10.9-24.4,24.4-24.4h259.2c13.5,0,24.4,10.9,24.4,24.4v28.8
		c0,13.5-10.9,24.4-24.4,24.4H30.4z M63.8,411.6l8.2-14.8c17-30.8,20.1-67.6,20.3-100.4H88c-13.5,0-24.4-10.9-24.4-24.4v-28.8
		c0-11.9,8.6-21.9,19.9-24c-17.3-18.8-27.1-43.4-27.1-69.6C56.4,92.5,102.9,46,160,46c57.1,0,103.6,46.5,103.6,103.6
		c0,26.2-9.8,50.8-27.1,69.6c11.3,2.1,19.9,12.1,19.9,24V272c0,13.5-10.9,24.4-24.4,24.4h-4.4c0.3,32.7,3.3,69.6,20.3,100.4
		l8.2,14.8H63.8z"/>
	<path class="st0" d="M160,56c51.7,0,93.6,41.9,93.6,93.6c0,33.5-17.7,62.7-44.2,79.2H232c8,0,14.4,6.4,14.4,14.4V272
		c0,8-6.4,14.4-14.4,14.4h-14.4v4.9c0,39.6,3.7,77.9,21.6,110.3H80.8c17.9-32.3,21.6-70.7,21.6-110.3v-4.9H88
		c-8,0-14.4-6.4-14.4-14.4v-28.8c0-8,6.4-14.4,14.4-14.4h22.6c-26.5-16.5-44.2-45.7-44.2-79.2C66.4,97.9,108.3,56,160,56
		 M289.6,430.4c8,0,14.4,6.4,14.4,14.4v28.8c0,8-6.4,14.4-14.4,14.4H30.4c-8,0-14.4-6.4-14.4-14.4v-28.8c0-8,6.4-14.4,14.4-14.4
		H289.6 M160,36c-30.3,0-58.9,11.8-80.3,33.3c-21.5,21.5-33.3,50-33.3,80.3c0,19.6,5.1,38.9,14.8,55.9c2,3.4,4.1,6.8,6.4,10
		c-8.5,6.3-14,16.4-14,27.7V272c0,17,12.4,31.2,28.6,33.9c-0.8,28.9-4.5,60-18.9,86l-10.2,18.5H30.4c-19,0-34.4,15.4-34.4,34.4v28.8
		c0,19,15.4,34.4,34.4,34.4h259.2c19,0,34.4-15.4,34.4-34.4v-28.8c0-19-15.4-34.4-34.4-34.4h-22.7l-10.2-18.5
		c-14.4-25.9-18.1-57.1-18.9-86c16.2-2.8,28.6-16.9,28.6-33.9v-28.8c0-11.4-5.5-21.5-14-27.7c2.3-3.2,4.5-6.6,6.4-10
		c9.7-17,14.8-36.3,14.8-55.9c0-30.3-11.8-58.9-33.3-80.3C218.9,47.8,190.3,36,160,36L160,36z"/>
</g>
</svg>
