<?xml version="1.0" encoding="utf-8"?>
<!-- Generator: Adobe Illustrator 24.3.0, SVG Export Plug-In . SVG Version: 6.00 Build 0)  -->
<svg version="1.1" id="Layer_1" xmlns="http://www.w3.org/2000/svg" xmlns:xlink="http://www.w3.org/1999/xlink" x="0px" y="0px"
	 viewBox="0 0 320 512" style="enable-background:new 0 0 320 512;" xml:space="preserve">
<style type="text/css">
	.st0{fill:#FFFFFF;}
</style>
<g>
	<path d="M30.4,491.4c-10.7,0-19.4-8.7-19.4-19.4v-28.8c0-10.7,8.7-19.4,19.4-19.4h259.2c10.7,0,19.4,8.7,19.4,19.4V472
		c0,10.7-8.7,19.4-19.4,19.4H30.4z M68.6,405v-40.6c-15.8-5.6-27.5-13.8-35.7-24.9C23,326,18.2,308,18.2,284.7
		c0-31.6,11.9-71.9,33.4-113.5c18.1-35,41.4-67.1,63.5-87.6c-10.7-5.8-17.7-16.8-17.7-29.2c0-18.6,15.2-33.8,33.8-33.8h57.6
		c18.6,0,33.8,15.2,33.8,33.8c0,12.4-7,23.4-17.7,29.2c20,18.6,41,47,58.7,79.2l1.8,3.3l-99.8,99.8c-0.9,0.9-0.9,2.3,0,3.1
		l10.2,10.2c0.6,0.6,1.2,0.6,1.6,0.6c0.3,0,1-0.1,1.6-0.6l95.4-95.4l3,6.6c16,35.6,24.5,68.2,24.5,94.4c0,42.1-16,67.5-50.4,79.7
		V405H68.6z"/>
	<path class="st0" d="M188.8,25.6c15.9,0,28.8,12.9,28.8,28.8c0,13.5-9.5,24.4-22.1,27.5c22,18.4,45.1,49.2,63.8,83.3l-97.1,97.1
		c-2.8,2.8-2.8,7.4,0,10.2l10.2,10.2c1.4,1.4,3.2,2.1,5.1,2.1c1.8,0,3.7-0.7,5.1-2.1l90.3-90.3c14.4,31.9,24,64.8,24,92.3
		c0,46.4-19.9,66.4-50.4,76.1V400H73.6v-39.2c-30.5-9.7-50.4-29.7-50.4-76.1c0-66,53.8-163,101.3-202.8c-12.6-3.1-22.1-14-22.1-27.5
		c0-15.9,12.9-28.8,28.8-28.8H188.8 M289.6,428.8c8,0,14.4,6.4,14.4,14.4V472c0,8-6.4,14.4-14.4,14.4H30.4c-8,0-14.4-6.4-14.4-14.4
		v-28.8c0-8,6.4-14.4,14.4-14.4H289.6 M188.8,15.6h-57.6c-21.4,0-38.8,17.4-38.8,38.8c0,11.9,5.6,22.8,14.7,29.9
		c-21.2,20.9-42.5,51-59.9,84.6c-21.9,42.3-34,83.5-34,115.8c0,43.2,16.1,69.8,50.4,83.2V400v10h10h172.8h10v-10v-32.1
		c15.1-5.9,26.5-14.3,34.7-25.5c10.6-14.4,15.7-33.3,15.7-57.8c0-34-13.5-71.2-24.9-96.4l-5.9-13.2l-10.2,10.2l-88.3,88.3l-6.2-6.2
		l95.1-95.2l5.3-5.3l-3.6-6.6c-16.6-30.2-36.2-57.2-55.1-76.1c9.1-7.1,14.7-18,14.7-29.9C227.6,33,210.2,15.6,188.8,15.6L188.8,15.6
		z M289.6,418.8H30.4C16.9,418.8,6,429.7,6,443.2V472c0,13.5,10.9,24.4,24.4,24.4h259.2c13.5,0,24.4-10.9,24.4-24.4v-28.8
		C314,429.7,303.1,418.8,289.6,418.8L289.6,418.8z"/>
</g>
</svg>
