<?xml version="1.0" encoding="utf-8"?>
<!-- Generator: Adobe Illustrator 24.3.0, SVG Export Plug-In . SVG Version: 6.00 Build 0)  -->
<svg version="1.1" id="Layer_1" xmlns="http://www.w3.org/2000/svg" xmlns:xlink="http://www.w3.org/1999/xlink" x="0px" y="0px"
	 viewBox="0 0 320 512" style="enable-background:new 0 0 320 512;" xml:space="preserve">
<style type="text/css">
	.st0{fill:#FFFFFF;}
</style>
<g>
	<path d="M30.4,493c-10.7,0-19.4-8.7-19.4-19.4v-28.8c0-10.7,8.7-19.4,19.4-19.4h259.2c10.7,0,19.4,8.7,19.4,19.4v28.8
		c0,10.7-8.7,19.4-19.4,19.4H30.4z M72.3,406.6l4.1-7.4c18.5-33.4,21-73.2,21-107.8H88c-10.7,0-19.4-8.7-19.4-19.4v-28.8
		c0-10.7,8.7-19.4,19.4-19.4h7.4c-21.5-18.6-34-45.4-34-74.2C61.4,95.2,105.6,51,160,51s98.6,44.2,98.6,98.6
		c0,28.8-12.5,55.6-34,74.2h7.4c10.7,0,19.4,8.7,19.4,19.4V272c0,10.7-8.7,19.4-19.4,19.4h-9.4c0,34.6,2.5,74.4,21,107.8l4.1,7.4
		H72.3z"/>
	<path class="st0" d="M160,56c51.7,0,93.6,41.9,93.6,93.6c0,33.5-17.7,62.7-44.2,79.2H232c8,0,14.4,6.4,14.4,14.4V272
		c0,8-6.4,14.4-14.4,14.4h-14.4v4.9c0,39.6,3.7,77.9,21.6,110.3H80.8c17.9-32.3,21.6-70.7,21.6-110.3v-4.9H88
		c-8,0-14.4-6.4-14.4-14.4v-28.8c0-8,6.4-14.4,14.4-14.4h22.6c-26.5-16.5-44.2-45.7-44.2-79.2C66.4,97.9,108.3,56,160,56
		 M289.6,430.4c8,0,14.4,6.4,14.4,14.4v28.8c0,8-6.4,14.4-14.4,14.4H30.4c-8,0-14.4-6.4-14.4-14.4v-28.8c0-8,6.4-14.4,14.4-14.4
		H289.6 M160,46C102.9,46,56.4,92.5,56.4,149.6c0,26.2,9.8,50.8,27.1,69.6c-11.3,2.1-19.9,12.1-19.9,24V272
		c0,13.5,10.9,24.4,24.4,24.4h4.4c-0.3,32.7-3.3,69.5-20.3,100.4l-8.2,14.8h17h158.4h17l-8.2-14.8c-17-30.8-20.1-67.6-20.3-100.4
		h4.4c13.5,0,24.4-10.9,24.4-24.4v-28.8c0-11.9-8.6-21.9-19.9-24c17.3-18.8,27.1-43.4,27.1-69.6C263.6,92.5,217.1,46,160,46L160,46z
		 M289.6,420.4H30.4C16.9,420.4,6,431.3,6,444.8v28.8C6,487.1,16.9,498,30.4,498h259.2c13.5,0,24.4-10.9,24.4-24.4v-28.8
		C314,431.3,303.1,420.4,289.6,420.4L289.6,420.4z"/>
</g>
</svg>
