<?xml version="1.0" encoding="utf-8"?>
<!-- Generator: Adobe Illustrator 24.3.0, SVG Export Plug-In . SVG Version: 6.00 Build 0)  -->
<svg version="1.1" id="Layer_1" xmlns="http://www.w3.org/2000/svg" xmlns:xlink="http://www.w3.org/1999/xlink" x="0px" y="0px"
	 viewBox="0 0 384 512" style="enable-background:new 0 0 384 512;" xml:space="preserve">
<style type="text/css">
	.st0{fill:#FFFFFF;}
</style>
<g>
	<path d="M33.6,498c-13.5,0-24.4-10.9-24.4-24.4v-28.8c0-13.5,10.9-24.4,24.4-24.4h316.8c13.5,0,24.4,10.9,24.4,24.4v28.8
		c0,13.5-10.9,24.4-24.4,24.4H33.6z M53,411.6l2.1-11.8c10.3-57.1,11.6-98.8,11.7-136.1L9.2,235V70.4C9.2,56.9,20.1,46,33.6,46h50.5
		c13.5,0,24.4,10.9,24.4,24.4v33.2h23.1V70.4c0-13.5,10.9-24.4,24.4-24.4h72c13.5,0,24.4,10.9,24.4,24.4v33.2h23.2V70.4
		c0-13.5,10.9-24.4,24.4-24.4h50.4c13.5,0,24.4,10.9,24.4,24.4V235l-57.6,28.8c0.1,37.3,1.5,78.9,11.7,136.1l2.1,11.8H53z
		 M210.8,305.2v-47.6c0-10.4-8.4-18.8-18.8-18.8s-18.8,8.4-18.8,18.8v47.6H210.8z"/>
	<path class="st0" d="M350.4,56c8,0,14.4,6.4,14.4,14.4v158.4l-57.6,28.8c0,42.9,1.4,85.5,11.9,144H64.9
		c10.5-58.5,11.9-100.5,11.9-144l-57.6-28.8V70.4c0-8,6.4-14.4,14.4-14.4h50.5c8,0,14.4,6.4,14.4,14.4v43.2h43.1V70.4
		c0-8,6.4-14.4,14.4-14.4h72c8,0,14.4,6.4,14.4,14.4v43.2h43.2V70.4c0-8,6.4-14.4,14.4-14.4H350.4 M163.2,315.2h57.6v-57.6
		c0-15.9-12.9-28.8-28.8-28.8s-28.8,12.9-28.8,28.8V315.2 M350.4,430.4c8,0,14.4,6.4,14.4,14.4v28.8c0,8-6.4,14.4-14.4,14.4H33.6
		c-8,0-14.4-6.4-14.4-14.4v-28.8c0-8,6.4-14.4,14.4-14.4H350.4 M350.4,36H300c-19,0-34.4,15.4-34.4,34.4v23.2h-3.2V70.4
		c0-19-15.4-34.4-34.4-34.4h-72c-19,0-34.4,15.4-34.4,34.4v23.2h-3.1V70.4c0-19-15.4-34.4-34.4-34.4H33.6c-19,0-34.4,15.4-34.4,34.4
		v158.4v12.4l11.1,5.5l46.5,23.3c-0.3,35.3-2,74.9-11.5,128.1L43,410.4h-9.4c-19,0-34.4,15.4-34.4,34.4v28.8
		c0,19,15.4,34.4,34.4,34.4h316.8c19,0,34.4-15.4,34.4-34.4v-28.8c0-19-15.4-34.4-34.4-34.4H341l-2.2-12.3
		c-9.6-53.2-11.3-92.8-11.5-128.1l46.5-23.3l11.1-5.5v-12.4V70.4C384.8,51.4,369.4,36,350.4,36L350.4,36z M183.2,295.2v-37.6
		c0-4.9,3.9-8.8,8.8-8.8s8.8,3.9,8.8,8.8v37.6H183.2L183.2,295.2z"/>
</g>
</svg>
