<?xml version="1.0" encoding="utf-8"?>
<!-- Generator: Adobe Illustrator 24.3.0, SVG Export Plug-In . SVG Version: 6.00 Build 0)  -->
<svg version="1.1" id="Layer_1" xmlns="http://www.w3.org/2000/svg" xmlns:xlink="http://www.w3.org/1999/xlink" x="0px" y="0px"
	 viewBox="0 0 384 512" style="enable-background:new 0 0 384 512;" xml:space="preserve">
<style type="text/css">
	.st0{fill:#FFFFFF;}
</style>
<g>
	<path d="M33.6,498c-13.5,0-24.4-10.9-24.4-24.4v-28.8c0-13.5,10.9-24.4,24.4-24.4h316.8c13.5,0,24.4,10.9,24.4,24.4v28.8
		c0,13.5-10.9,24.4-24.4,24.4H33.6z M38,411.6v-23.1c0-31.3,17.3-59.4,45.3-73.3l51.5-25.8c11.3-5.7,18.4-17,18.4-29.7v-29.1
		l-5.4,2.7c-3,1.5-5.2,4.3-6.1,7.6l-0.1,0.2l-8.4,27.8c-3.4,11.4-11.7,20.4-22.7,24.9L99,298.4c-4.6,1.8-9.5,2.8-14.4,2.8
		c0,0,0,0,0,0c-5.5,0-10.8-1.1-15.8-3.3l-36.6-16.3c-14-6.2-23-20.2-23-35.5V122.6c0-8.4,3.3-16.4,9.2-22.4l3-3l-9.6-19.1
		c-1.7-3.5-2.7-7.4-2.7-11.3C9.2,55.3,18.5,46,30,46h133.1c100.8,0,182.7,82,182.7,182.8v182.8H38z M66,152.4c-4.4,0-8,3.6-8,8
		s3.6,8,8,8s8-3.6,8-8S70.4,152.4,66,152.4z"/>
	<path class="st0" d="M163.1,56c95.4,0,172.7,77.4,172.7,172.8v172.8H48v-13.1c0-27.3,15.4-52.2,39.8-64.4l51.5-25.8
		c14.6-7.3,23.9-22.3,23.9-38.6v-45.3l-19.9,10c-5.6,2.8-9.8,8-11.3,14.1l-8.3,27.6c-2.5,8.4-8.7,15.2-16.9,18.5l-11.5,4.6
		c-3.4,1.4-7.1,2.1-10.7,2.1c-4,0-8-0.8-11.7-2.5l-36.6-16.3c-10.4-4.6-17.1-14.9-17.1-26.3V122.6c0-5.7,2.3-11.2,6.3-15.3l8.1-8.1
		L20.8,73.6c-1.1-2.1-1.6-4.5-1.6-6.8C19.2,60.8,24,56,30,56H163.1 M66,178.4c9.9,0,18-8.1,18-18c0-9.9-8.1-18-18-18s-18,8.1-18,18
		C48,170.3,56.1,178.4,66,178.4 M350.4,430.4c8,0,14.4,6.4,14.4,14.4v28.8c0,8-6.4,14.4-14.4,14.4H33.6c-8,0-14.4-6.4-14.4-14.4
		v-28.8c0-8,6.4-14.4,14.4-14.4H350.4 M163.1,36H30C13,36-0.8,49.8-0.8,66.8c0,5.4,1.3,10.9,3.7,15.8l6.4,12.8
		C2.7,103-0.8,112.5-0.8,122.6l0,123.4c0,19.3,11.4,36.8,29,44.6L64.7,307c2.6,1.1,5.2,2,7.8,2.7c-12.5,7.5-23.1,18-30.9,30.5
		c-9,14.5-13.7,31.3-13.7,48.4v13.1v9.3c-16.3,2.7-28.8,16.9-28.8,33.9v28.8c0,19,15.4,34.4,34.4,34.4h316.8
		c19,0,34.4-15.4,34.4-34.4v-28.8c0-17.1-12.6-31.3-28.9-34v-9.2V228.8c0-26-5.1-51.3-15.2-75c-9.7-23-23.6-43.6-41.3-61.3
		c-17.7-17.7-38.3-31.6-61.3-41.3C214.4,41.1,189.2,36,163.1,36L163.1,36z"/>
</g>
</svg>
