<?xml version="1.0" encoding="utf-8"?>
<!-- Generator: Adobe Illustrator 24.3.0, SVG Export Plug-In . SVG Version: 6.00 Build 0)  -->
<svg version="1.1" id="Layer_1" xmlns="http://www.w3.org/2000/svg" xmlns:xlink="http://www.w3.org/1999/xlink" x="0px" y="0px"
	 viewBox="0 0 448 512" style="enable-background:new 0 0 448 512;" xml:space="preserve">
<style type="text/css">
	.st0{fill:#FFFFFF;}
</style>
<g>
	<path d="M65.6,496.4c-13.5,0-24.4-10.9-24.4-24.4v-28.8c0-13.5,10.9-24.4,24.4-24.4h316.8c13.5,0,24.4,10.9,24.4,24.4V472
		c0,13.5-10.9,24.4-24.4,24.4H65.6z M82.3,410L14.2,210.1l0-0.1c-1.2-3.7-1.8-7.6-1.8-11.5c0-10.4,4-20.1,11.3-27.4
		c7.3-7.3,17.1-11.4,27.4-11.4h134v-23.2h-26c-9.5,0-17.2-7.7-17.2-17.2V76c0-9.5,7.7-17.2,17.2-17.2h26v-26
		c0-9.5,7.7-17.2,17.2-17.2h43.2c9.5,0,17.2,7.7,17.2,17.2v26h26c9.5,0,17.2,7.7,17.2,17.2v43.2c0,9.5-7.7,17.2-17.2,17.2h-26v23.2
		h134c3.9,0,7.8,0.6,11.5,1.8c9.9,3.1,18,9.8,22.8,19s5.8,19.7,2.7,29.6l-0.1,0.2L365.7,410H82.3z"/>
	<path class="st0" d="M245.6,25.6c4,0,7.2,3.2,7.2,7.2v36h36c4,0,7.2,3.2,7.2,7.2v43.2c0,4-3.2,7.2-7.2,7.2h-36v43.2h144
		c2.9,0,5.8,0.4,8.6,1.3c15.2,4.7,23.6,20.9,18.9,36.1l-65.8,193h-269L23.7,207c-0.9-2.8-1.3-5.7-1.3-8.6
		c0-15.9,12.9-28.8,28.8-28.8h144v-43.2h-36c-4,0-7.2-3.2-7.2-7.2V76c0-4,3.2-7.2,7.2-7.2h36v-36c0-4,3.2-7.2,7.2-7.2H245.6
		 M382.4,428.8c8,0,14.4,6.4,14.4,14.4V472c0,8-6.4,14.4-14.4,14.4H65.6c-8,0-14.4-6.4-14.4-14.4v-28.8c0-8,6.4-14.4,14.4-14.4
		H382.4 M245.6,5.6h-43.2c-15,0-27.2,12.2-27.2,27.2v16h-16C144.2,48.8,132,61,132,76v43.2c0,15,12.2,27.2,27.2,27.2h16v3.2h-124
		c-13.1,0-25.3,5.1-34.5,14.3c-9.2,9.2-14.3,21.5-14.3,34.5c0,4.9,0.8,9.8,2.2,14.5l0.1,0.2l0.1,0.2l65.8,193l0.8,2.3h-5.8
		c-19,0-34.4,15.4-34.4,34.4V472c0,19,15.4,34.4,34.4,34.4h316.8c19,0,34.4-15.4,34.4-34.4v-28.8c0-19-15.4-34.4-34.4-34.4h-5.8
		l0.8-2.3l65.8-193l0.1-0.2l0.1-0.2c3.9-12.4,2.7-25.7-3.4-37.2s-16.2-20-28.7-23.9c-4.7-1.5-9.6-2.2-14.5-2.2h-124v-3.2h16
		c15,0,27.2-12.2,27.2-27.2V76c0-15-12.2-27.2-27.2-27.2h-16v-16C272.8,17.8,260.6,5.6,245.6,5.6L245.6,5.6z"/>
</g>
</svg>
