<?xml version="1.0" encoding="utf-8"?>
<!-- Generator: Adobe Illustrator 24.3.0, SVG Export Plug-In . SVG Version: 6.00 Build 0)  -->
<svg version="1.1" id="Layer_1" xmlns="http://www.w3.org/2000/svg" xmlns:xlink="http://www.w3.org/1999/xlink" x="0px" y="0px"
	 viewBox="0 0 384 512" style="enable-background:new 0 0 384 512;" xml:space="preserve">
<style type="text/css">
	.st0{fill:#FFFFFF;}
</style>
<g>
	<path d="M33.6,493c-10.7,0-19.4-8.7-19.4-19.4v-28.8c0-10.7,8.7-19.4,19.4-19.4h316.8c10.7,0,19.4,8.7,19.4,19.4v28.8
		c0,10.7-8.7,19.4-19.4,19.4H33.6z M58.9,406.6l1.1-5.9c10.6-59.1,11.8-101.7,11.8-140l-57.6-28.8V70.4c0-10.7,8.7-19.4,19.4-19.4
		h50.5c10.7,0,19.4,8.7,19.4,19.4v38.2h33.1V70.4c0-10.7,8.7-19.4,19.4-19.4h72c10.7,0,19.4,8.7,19.4,19.4v38.2h33.2V70.4
		c0-10.7,8.7-19.4,19.4-19.4h50.4c10.7,0,19.4,8.7,19.4,19.4v161.5l-57.6,28.8c0.1,38.3,1.2,80.9,11.8,140l1.1,5.9H58.9z
		 M215.8,310.2v-52.6c0-13.1-10.7-23.8-23.8-23.8s-23.8,10.7-23.8,23.8v52.6H215.8z"/>
	<path class="st0" d="M350.4,56c8,0,14.4,6.4,14.4,14.4v158.4l-57.6,28.8c0,42.9,1.4,85.5,11.9,144H64.9
		c10.5-58.5,11.9-100.5,11.9-144l-57.6-28.8V70.4c0-8,6.4-14.4,14.4-14.4h50.5c8,0,14.4,6.4,14.4,14.4v43.2h43.1V70.4
		c0-8,6.4-14.4,14.4-14.4h72c8,0,14.4,6.4,14.4,14.4v43.2h43.2V70.4c0-8,6.4-14.4,14.4-14.4H350.4 M163.2,315.2h57.6v-57.6
		c0-15.9-12.9-28.8-28.8-28.8s-28.8,12.9-28.8,28.8V315.2 M350.4,430.4c8,0,14.4,6.4,14.4,14.4v28.8c0,8-6.4,14.4-14.4,14.4H33.6
		c-8,0-14.4-6.4-14.4-14.4v-28.8c0-8,6.4-14.4,14.4-14.4H350.4 M350.4,46H300c-13.5,0-24.4,10.9-24.4,24.4v33.2h-23.2V70.4
		c0-13.5-10.9-24.4-24.4-24.4h-72c-13.5,0-24.4,10.9-24.4,24.4v33.2h-23.1V70.4c0-13.5-10.9-24.4-24.4-24.4H33.6
		C20.1,46,9.2,56.9,9.2,70.4v158.4v6.2l5.5,2.8l52.1,26c-0.1,37.3-1.5,78.9-11.7,136.1L53,411.6h12h254.2h12l-2.1-11.8
		c-10.3-57.1-11.6-98.8-11.7-136.1l52.1-26l5.5-2.8v-6.2V70.4C374.8,56.9,363.9,46,350.4,46L350.4,46z M173.2,305.2v-47.6
		c0-10.4,8.4-18.8,18.8-18.8s18.8,8.4,18.8,18.8v47.6H173.2L173.2,305.2z M350.4,420.4H33.6c-13.5,0-24.4,10.9-24.4,24.4v28.8
		c0,13.5,10.9,24.4,24.4,24.4h316.8c13.5,0,24.4-10.9,24.4-24.4v-28.8C374.8,431.3,363.9,420.4,350.4,420.4L350.4,420.4z"/>
</g>
</svg>
