<?xml version="1.0" encoding="utf-8"?>
<!-- Generator: Adobe Illustrator 24.3.0, SVG Export Plug-In . SVG Version: 6.00 Build 0)  -->
<svg version="1.1" id="Layer_1" xmlns="http://www.w3.org/2000/svg" xmlns:xlink="http://www.w3.org/1999/xlink" x="0px" y="0px"
	 viewBox="0 0 320 512" style="enable-background:new 0 0 320 512;" xml:space="preserve">
<style type="text/css">
	.st0{fill:#FFFFFF;}
</style>
<g>
	<path d="M30.4,496.4C16.9,496.4,6,485.5,6,472v-28.8c0-13.5,10.9-24.4,24.4-24.4h259.2c13.5,0,24.4,10.9,24.4,24.4V472
		c0,13.5-10.9,24.4-24.4,24.4H30.4z M63.6,410v-42.1c-34.3-13.4-50.4-40-50.4-83.2c0-32.4,12.1-73.5,34-115.8
		c17.4-33.6,38.7-63.6,59.9-84.6c-9.1-7.1-14.7-18-14.7-29.9c0-21.4,17.4-38.8,38.8-38.8h57.6c21.4,0,38.8,17.4,38.8,38.8
		c0,11.9-5.6,22.8-14.7,29.9c19,18.9,38.5,45.8,55.1,76.1l3.6,6.6L171.2,267.4l6.2,6.2l98.5-98.6l5.9,13.2
		c11.4,25.2,24.9,62.5,24.9,96.4c0,43.2-16.1,69.8-50.4,83.2V410H63.6z"/>
	<path class="st0" d="M188.8,25.6c15.9,0,28.8,12.9,28.8,28.8c0,13.5-9.5,24.4-22.1,27.5c22,18.4,45.1,49.2,63.8,83.3l-97.1,97.1
		c-2.8,2.8-2.8,7.4,0,10.2l10.2,10.2c1.4,1.4,3.2,2.1,5.1,2.1c1.8,0,3.7-0.7,5.1-2.1l90.3-90.3c14.4,31.9,24,64.8,24,92.3
		c0,46.4-19.9,66.4-50.4,76.1V400H73.6v-39.2c-30.5-9.7-50.4-29.7-50.4-76.1c0-66,53.8-163,101.3-202.8c-12.6-3.1-22.1-14-22.1-27.5
		c0-15.9,12.9-28.8,28.8-28.8H188.8 M289.6,428.8c8,0,14.4,6.4,14.4,14.4V472c0,8-6.4,14.4-14.4,14.4H30.4c-8,0-14.4-6.4-14.4-14.4
		v-28.8c0-8,6.4-14.4,14.4-14.4H289.6 M188.8,5.6h-57.6c-26.9,0-48.8,21.9-48.8,48.8c0,11.2,3.9,21.7,10.7,30
		C47.5,133.7,3.2,220.7,3.2,284.7c0,44.6,16.5,74.1,50.4,89.8V400v8.8H30.4c-19,0-34.4,15.4-34.4,34.4V472c0,19,15.4,34.4,34.4,34.4
		h259.2c19,0,34.4-15.4,34.4-34.4v-28.8c0-19-15.4-34.4-34.4-34.4h-23.2V400v-25.5c33.9-15.7,50.4-45.3,50.4-89.8
		c0-35.7-14-74.4-25.8-100.5l-11.9-26.4l-0.7,0.7l-1.6-2.9c-15-27.4-32.5-52.2-49.9-71.1c6.8-8.3,10.7-18.8,10.7-30.1
		C237.6,27.5,215.7,5.6,188.8,5.6L188.8,5.6z"/>
</g>
</svg>
